:FULLY-SPECIFIED
:FORCE-ALL-JOINTS-BE-3DOF
:DEGREES
510
root -4.8392 15.0344 -42.2191 6.33245 -2.30177 -14.0746
lfemur -57.1659 39.5153 -16.2606
ltibia 73.0553 -0 0
lfoot -24.0224 32.2273 -0.241719
ltoes 13.1315 -0 0
rfemur -12.8517 -13.7967 4.25599
rtibia 52.0951 -0 0
rfoot 8.58672 -18.1209 -0.628056
rtoes 9.49217 -0 0
lowerback 15.2876 1.00557 -4.80089
upperback -1.4768 0.836735 3.96234
thorax -10.3991 0.818103 6.8802
lowerneck 4.22699 -15.1321 -17.4439
upperneck 4.10514 -22.1838 20.6135
head 4.90473 -11.195 7.81003
lclavicle 1.91579e-014 -1.23246e-014 0
lhumerus -5.53019 -67.5969 99.6636
lradius 82.0731 -0 0
lwrist 30.0518 0 0
lhand -4.8938 37.6593 -0.362131
lfingers 7.12502 -0 0
lthumb 20.8845 66.3747 -0.388488
rclavicle 1.91579e-014 -1.23246e-014 0
rhumerus 67.6951 36.2259 -19.0322
rradius 110.411 -0 0
rwrist -28.0662 0 0
rhand 5.5632 -14.9114 -0.0924806
rfingers 7.12502 -0 0
rthumb 30.8968 -42.2754 -0.0547284
511
root -4.90249 15.0224 -42.2442 6.2697 -5.40706 -13.7982
lfemur -54.4743 38.7624 -14.1242
ltibia 72.7482 -0 0
lfoot -23.5098 31.1435 -0.283358
ltoes 11.1196 -0 0
rfemur -13.9539 -14.4147 3.92347
rtibia 52.1594 -0 0
rfoot 7.84647 -16.8469 -0.749806
rtoes 8.34392 -0 0
lowerback 15.4779 1.08249 -4.99532
upperback -1.41293 0.880645 3.84401
thorax -10.446 0.845373 6.84874
lowerneck 3.78139 -14.8895 -17.4516
upperneck 4.7191 -21.8342 20.1484
head 5.04309 -10.995 7.68451
lclavicle 1.91579e-014 -1.23246e-014 0
lhumerus -11.7428 -65.18 104.036
lradius 83.2752 -0 0
lwrist 32.1428 0 0
lhand -5.96182 38.3306 -0.435976
lfingers 7.12502 -0 0
lthumb 19.8559 67.1207 -0.467927
rclavicle 1.91579e-014 -1.23246e-014 0
rhumerus 63.2023 37.1779 -21.1994
rradius 111.368 -0 0
rwrist -28.7778 0 0
rhand 6.52134 -15.008 -0.124517
rfingers 7.12502 -0 0
rthumb 31.8088 -42.1989 -0.0824194
512
root -4.96578 15.0103 -42.2693 6.16175 -8.58033 -13.4723
lfemur -51.6399 37.8154 -11.9618
ltibia 72.4196 -0 0
lfoot -22.9914 29.9925 -0.317273
ltoes 8.96147 -0 0
rfemur -15.2408 -15.0469 3.64965
rtibia 52.3299 -0 0
rfoot 6.99805 -15.5028 -0.855689
rtoes 7.11009 -0 0
lowerback 15.6892 1.15811 -5.20752
upperback -1.33958 0.91688 3.71713
thorax -10.4929 0.869332 6.82019
lowerneck 3.3145 -14.633 -17.4578
upperneck 5.35068 -21.4574 19.658
head 5.18313 -10.7825 7.55162
lclavicle 1.91579e-014 -1.23246e-014 0
lhumerus -17.3297 -62.3995 107.623
lradius 84.5678 -0 0
lwrist 34.3487 0 0
lhand -7.10666 39.0505 -0.499765
lfingers 7.12502 -0 0
lthumb 18.753 67.9214 -0.536625
rclavicle 1.91579e-014 -1.23246e-014 0
rhumerus 58.2906 38.0166 -23.6524
rradius 112.395 -0 0
rwrist -29.5363 0 0
rhand 7.54493 -15.1354 -0.15645
rfingers 7.12502 -0 0
rthumb 32.7829 -42.1408 -0.112875
513
root -5.02907 14.9983 -42.2945 6.00783 -11.8041 -13.0973
lfemur -48.7196 36.6839 -9.82405
ltibia 72.0689 -0 0
lfoot -22.4719 28.7917 -0.341967
ltoes 6.68675 -0 0
rfemur -16.6897 -15.6885 3.43453
rtibia 52.5953 -0 0
rfoot 6.05904 -14.1018 -0.940541
rtoes 5.81218 -0 0
lowerback 15.9167 1.23259 -5.43373
upperback -1.25841 0.946547 3.58327
thorax -10.5392 0.890357 6.79388
lowerneck 2.83187 -14.3649 -17.4616
upperneck 5.9914 -21.0565 19.148
head 5.32284 -10.5596 7.41264
lclavicle 1.91579e-014 -1.23246e-014 0
lhumerus -22.304 -59.3219 110.451
lradius 85.9329 -0 0
lwrist 36.6438 0 0
lhand -8.31046 39.8077 -0.550013
lfingers 7.12502 -0 0
lthumb 17.5933 68.7642 -0.590828
rclavicle 1.91579e-014 -1.23246e-014 0
rhumerus 53.0298 38.6887 -26.3558
rradius 113.458 -0 0
rwrist -30.3193 0 0
rhand 8.61015 -15.2901 -0.186349
rfingers 7.12502 -0 0
rthumb 33.7965 -42.1015 -0.144588
514
root -5.09236 14.9862 -42.3196 5.8071 -15.0608 -12.6732
lfemur -45.7644 35.3828 -7.75595
ltibia 71.6953 -0 0
lfoot -21.9556 27.559 -0.35644
ltoes 4.32493 -0 0
rfemur -18.278 -16.334 3.27747
rtibia 52.9442 -0 0
rfoot 5.04729 -12.6572 -1.00018
rtoes 4.47173 -0 0
lowerback 16.1555 1.30605 -5.67018
upperback -1.17109 0.970744 3.444
thorax -10.5839 0.908823 6.76913
lowerneck 2.33901 -14.0878 -17.4623
upperneck 6.63297 -20.6346 18.6239
head 5.46025 -10.3284 7.26884
lclavicle 1.91579e-014 -1.23246e-014 0
lhumerus -26.7306 -56.0163 112.601
lradius 87.3527 -0 0
lwrist 39.0025 0 0
lhand -9.55524 40.5909 -0.584039
lfingers 7.12502 -0 0
lthumb 16.3939 69.6364 -0.627637
rclavicle 1.91579e-014 -1.23246e-014 0
rhumerus 47.5057 39.1487 -29.2562
rradius 114.523 -0 0
rwrist -31.105 0 0
rhand 9.69315 -15.4687 -0.212466
rfingers 7.12502 -0 0
rthumb 34.8268 -42.0812 -0.175964
515
root -5.15565 14.9742 -42.3447 5.55869 -18.3329 -12.1998
lfemur -42.8176 33.9322 -5.79507
ltibia 71.2981 -0 0
lfoot -21.4473 26.312 -0.360203
ltoes 1.90556 -0 0
rfemur -19.9828 -16.9778 3.17705
rtibia 53.3653 -0 0
rfoot 3.9808 -11.1828 -1.03157
rtoes 3.11023 -0 0
lowerback 16.4008 1.37854 -5.91312
upperback -1.07929 0.990561 3.30088
thorax -10.6266 0.925105 6.74528
lowerneck 1.84143 -13.804 -17.4591
upperneck 7.26732 -20.1952 18.0911
head 5.59338 -10.0909 7.12145
lclavicle 1.91579e-014 -1.23246e-014 0
lhumerus -30.6911 -52.5508 114.169
lradius 88.8091 -0 0
lwrist 41.399 0 0
lhand -10.823 41.3885 -0.600068
lfingers 7.12502 -0 0
lthumb 15.1724 70.5253 -0.645128
rclavicle 1.91579e-014 -1.23246e-014 0
rhumerus 41.8185 39.3622 -32.284
rradius 115.557 -0 0
rwrist -31.871 0 0
rhand 10.7701 -15.6676 -0.233296
rfingers 7.12502 -0 0
rthumb 35.8511 -42.0802 -0.205363
516
root -5.21893 14.9621 -42.3698 5.26176 -21.6028 -11.6767
lfemur -39.9148 32.3567 -3.97109
ltibia 70.8765 -0 0
lfoot -20.9515 25.0684 -0.353283
ltoes -0.541825 0 0
rfemur -21.781 -17.6137 3.13097
rtibia 53.8473 -0 0
rfoot 2.87771 -9.69213 -1.03301
rtoes 1.7492 -0 0
lowerback 16.6478 1.45005 -6.15883
upperback -0.984679 1.00707 3.15548
thorax -10.6664 0.939578 6.72165
lowerneck 1.34463 -13.5158 -17.4511
upperneck 7.88661 -19.742 17.5546
head 5.7203 -9.84917 6.97167
lclavicle 1.91579e-014 -1.23246e-014 0
lhumerus -34.2644 -48.9909 115.249
lradius 90.2841 -0 0
lwrist 43.8077 0 0
lhand -12.0956 42.189 -0.597297
lfingers 7.12502 -0 0
lthumb 13.9463 71.4179 -0.64242
rclavicle 1.91579e-014 -1.23246e-014 0
rhumerus 36.0797 39.3093 -35.3576
rradius 116.526 -0 0
rwrist -32.5953 0 0
rhand 11.8171 -15.8834 -0.247627
rfingers 7.12502 -0 0
rthumb 36.8467 -42.0984 -0.231135
517
root -5.28222 14.9501 -42.3949 4.91559 -24.8528 -11.1037
lfemur -37.0836 30.6848 -2.30591
ltibia 70.4298 -0 0
lfoot -20.4729 23.846 -0.336208
ltoes -2.98768 0 0
rfemur -23.6491 -18.2357 3.13601
rtibia 54.3787 -0 0
rfoot 1.7562 -8.19908 -1.00416
rtoes 0.410155 -0 0
lowerback 16.8916 1.52049 -6.40356
upperback -0.888921 1.02134 3.00937
thorax -10.7027 0.952615 6.69758
lowerneck 0.854094 -13.2256 -17.437
upperneck 8.4832 -19.2789 17.0191
head 5.83908 -9.60533 6.82067
lclavicle 1.91579e-014 -1.23246e-014 0
lhumerus -37.5183 -45.3985 115.924
lradius 91.7598 -0 0
lwrist 46.2028 0 0
lhand -13.3549 42.9807 -0.575926
lfingers 7.12502 -0 0
lthumb 12.7329 72.3013 -0.619707
rclavicle 1.91579e-014 -1.23246e-014 0
rhumerus 30.4048 38.9861 -38.3906
rradius 117.397 -0 0
rwrist -33.2557 0 0
rhand 12.8103 -16.1123 -0.254578
rfingers 7.12502 -0 0
rthumb 37.7908 -42.1359 -0.251663
518
root -5.34551 14.938 -42.42 4.51977 -28.0653 -10.4804
lfemur -34.3453 28.9478 -0.814212
ltibia 69.9572 -0 0
lfoot -20.0159 22.6623 -0.309979
ltoes -5.40248 0 0
rfemur -25.5633 -18.8377 3.18798
rtibia 54.9484 -0 0
rfoot 0.634406 -6.71742 -0.946138
rtoes -0.885396 0 0
lowerback 17.1276 1.5897 -6.64361
upperback -0.793699 1.03442 2.86414
thorax -10.7347 0.96459 6.67239
lowerneck 0.375289 -12.9357 -17.4159
upperneck 9.04971 -18.8101 16.4889
head 5.94786 -9.3615 6.6696
lclavicle 1.91579e-014 -1.23246e-014 0
lhumerus -40.5072 -41.8329 116.268
lradius 93.2182 -0 0
lwrist 48.5587 0 0
lhand -14.5829 43.752 -0.537146
lfingers 7.12502 -0 0
lthumb 11.5499 73.1626 -0.578252
rclavicle 1.91579e-014 -1.23246e-014 0
rhumerus 24.9063 38.4054 -41.3
rradius 118.136 -0 0
rwrist -33.8301 0 0
rhand 13.7258 -16.3509 -0.253612
rfingers 7.12502 -0 0
rthumb 38.6606 -42.1927 -0.265404
519
root -5.4088 14.926 -42.4452 4.07441 -31.2229 -9.80723
lfemur -31.7151 27.1789 0.49557
ltibia 69.458 -0 0
lfoot -19.5852 21.5352 -0.276025
ltoes -7.75666 0 0
rfemur -27.4992 -19.4138 3.2817
rtibia 55.5449 -0 0
rfoot -0.469654 -5.26082 -0.861502
rtoes -2.11594 0 0
lowerback 17.3508 1.65745 -6.87529
upperback -0.700693 1.04734 2.72134
thorax -10.7618 0.975877 6.64542
lowerneck -0.0863247 -12.6484 -17.3864
upperneck 9.57898 -18.34 15.9684
head 6.04475 -9.11978 6.51955
lclavicle 1.91579e-014 -1.23246e-014 0
lhumerus -43.272 -38.3503 116.343
lradius 94.6414 -0 0
lwrist 50.8496 0 0
lhand -15.7616 44.4915 -0.483095
lfingers 7.12502 -0 0
lthumb 10.4146 73.9892 -0.520334
rclavicle 1.91579e-014 -1.23246e-014 0
rhumerus 19.6867 37.5943 -44.0136
rradius 118.71 -0 0
rwrist -34.2964 0 0
rhand 14.5397 -16.5953 -0.244545
rfingers 7.12502 -0 0
rthumb 39.4335 -42.2687 -0.270921
520
root -5.47209 14.9139 -42.4703 3.58042 -34.3081 -9.08507
lfemur -29.2042 25.413 1.62016
ltibia 68.9315 -0 0
lfoot -19.1851 20.4821 -0.236151
ltoes -10.0207 0 0
rfemur -29.4321 -19.9587 3.41099
rtibia 56.1569 -0 0
rfoot -1.53817 -3.84281 -0.754205
rtoes -3.25996 0 0
lowerback 17.5565 1.72345 -7.0949
upperback -0.611591 1.06112 2.58256
thorax -10.7832 0.986851 6.61599
lowerneck -0.525298 -12.3661 -17.3472
upperneck 10.0641 -17.873 15.4614
head 6.12792 -8.88234 6.37162
lclavicle 1.91579e-014 -1.23246e-014 0
lhumerus -45.8414 -35.0043 116.201
lradius 96.0113 -0 0
lwrist 53.05 0 0
lhand -16.8731 45.1879 -0.416771
lfingers 7.12502 -0 0
lthumb 9.34427 74.7682 -0.44916
rclavicle 1.91579e-014 -1.23246e-014 0
rhumerus 14.8343 36.5921 -46.4751
rradius 119.086 -0 0
rwrist -34.6325 0 0
rhand 15.228 -16.8422 -0.227528
rfingers 7.12502 -0 0
rthumb 40.0866 -42.3639 -0.266933
521
root -5.53538 14.9019 -42.4954 3.03989 -37.3037 -8.31605
lfemur -26.8208 23.6856 2.56037
ltibia 68.3769 -0 0
lfoot -18.8199 19.5206 -0.19246
ltoes -12.1651 0 0
rfemur -31.3365 -20.4673 3.5688
rtibia 56.7731 -0 0
rfoot -2.5536 -2.47666 -0.629499
rtoes -4.29595 0 0
lowerback 17.74 1.78735 -7.29877
upperback -0.528083 1.07677 2.44938
thorax -10.7982 0.997885 6.58344
lowerneck -0.936191 -12.0911 -17.2969
upperneck 10.4983 -17.414 14.9717
head 6.19556 -8.6513 6.22687
lclavicle 1.91579e-014 -1.23246e-014 0
lhumerus -48.2336 -31.846 115.891
lradius 97.3099 -0 0
lwrist 55.1341 0 0
lhand -17.8994 45.8299 -0.341913
lfingers 7.12502 -0 0
lthumb 8.35615 75.4874 -0.368732
rclavicle 1.91579e-014 -1.23246e-014 0
rhumerus 10.4215 35.4461 -48.6457
rradius 119.229 -0 0
rwrist -34.8161 0 0
rhand 15.767 -17.0878 -0.203028
rfingers 7.12502 -0 0
rthumb 40.5971 -42.4783 -0.252341
